<svg xmlns="http://www.w3.org/2000/svg" xmlns:xlink="http://www.w3.org/1999/xlink" width="300" zoomAndPan="magnify" viewBox="0 0 224.87999 59.249999" height="79" preserveAspectRatio="xMidYMid meet" version="1.0"><defs><g/><clipPath id="112cf7910c"><path d="M 9 3.914062 L 39 3.914062 L 39 53 L 9 53 Z M 9 3.914062 " clip-rule="nonzero"/></clipPath><clipPath id="bfac5a60cf"><path d="M 3.167969 13 L 44.644531 13 L 44.644531 54.277344 L 3.167969 54.277344 Z M 3.167969 13 " clip-rule="nonzero"/></clipPath><clipPath id="607fd61172"><path d="M 186 3.914062 L 216 3.914062 L 216 53 L 186 53 Z M 186 3.914062 " clip-rule="nonzero"/></clipPath><clipPath id="c58b7c9b7b"><path d="M 180.0625 13 L 221.539062 13 L 221.539062 54.277344 L 180.0625 54.277344 Z M 180.0625 13 " clip-rule="nonzero"/></clipPath></defs><g fill="#c6a47e" fill-opacity="1"><g transform="translate(52.21098, 37.744102)"><g><path d="M 10.21875 -2.53125 L 4.84375 -2.53125 L 3.984375 0 L 0.328125 0 L 5.53125 -14.375 L 9.578125 -14.375 L 14.78125 0 L 11.078125 0 Z M 9.3125 -5.234375 L 7.53125 -10.5 L 5.765625 -5.234375 Z M 9.3125 -5.234375 "/></g></g></g><g fill="#c6a47e" fill-opacity="1"><g transform="translate(67.289867, 37.744102)"><g><path d="M 8.59375 0 L 5.609375 -5.421875 L 4.765625 -5.421875 L 4.765625 0 L 1.265625 0 L 1.265625 -14.375 L 7.140625 -14.375 C 8.273438 -14.375 9.238281 -14.175781 10.03125 -13.78125 C 10.832031 -13.382812 11.429688 -12.835938 11.828125 -12.140625 C 12.222656 -11.453125 12.421875 -10.6875 12.421875 -9.84375 C 12.421875 -8.882812 12.148438 -8.03125 11.609375 -7.28125 C 11.078125 -6.53125 10.285156 -6 9.234375 -5.6875 L 12.546875 0 Z M 4.765625 -7.90625 L 6.9375 -7.90625 C 7.582031 -7.90625 8.0625 -8.0625 8.375 -8.375 C 8.695312 -8.6875 8.859375 -9.128906 8.859375 -9.703125 C 8.859375 -10.242188 8.695312 -10.671875 8.375 -10.984375 C 8.0625 -11.304688 7.582031 -11.46875 6.9375 -11.46875 L 4.765625 -11.46875 Z M 4.765625 -7.90625 "/></g></g></g><g fill="#c6a47e" fill-opacity="1"><g transform="translate(80.629671, 37.744102)"><g><path d="M 0.671875 -7.203125 C 0.671875 -8.617188 0.976562 -9.882812 1.59375 -11 C 2.207031 -12.113281 3.0625 -12.976562 4.15625 -13.59375 C 5.257812 -14.21875 6.507812 -14.53125 7.90625 -14.53125 C 9.601562 -14.53125 11.0625 -14.078125 12.28125 -13.171875 C 13.5 -12.273438 14.3125 -11.050781 14.71875 -9.5 L 10.875 -9.5 C 10.582031 -10.09375 10.171875 -10.546875 9.640625 -10.859375 C 9.117188 -11.179688 8.523438 -11.34375 7.859375 -11.34375 C 6.785156 -11.34375 5.910156 -10.96875 5.234375 -10.21875 C 4.566406 -9.46875 4.234375 -8.460938 4.234375 -7.203125 C 4.234375 -5.953125 4.566406 -4.945312 5.234375 -4.1875 C 5.910156 -3.4375 6.785156 -3.0625 7.859375 -3.0625 C 8.523438 -3.0625 9.117188 -3.21875 9.640625 -3.53125 C 10.171875 -3.851562 10.582031 -4.3125 10.875 -4.90625 L 14.71875 -4.90625 C 14.3125 -3.351562 13.5 -2.128906 12.28125 -1.234375 C 11.0625 -0.335938 9.601562 0.109375 7.90625 0.109375 C 6.507812 0.109375 5.257812 -0.203125 4.15625 -0.828125 C 3.0625 -1.453125 2.207031 -2.316406 1.59375 -3.421875 C 0.976562 -4.523438 0.671875 -5.785156 0.671875 -7.203125 Z M 0.671875 -7.203125 "/></g></g></g><g fill="#c6a47e" fill-opacity="1"><g transform="translate(96.220054, 37.744102)"><g><path d="M 13.71875 -14.375 L 13.71875 0 L 10.21875 0 L 10.21875 -5.921875 L 4.765625 -5.921875 L 4.765625 0 L 1.265625 0 L 1.265625 -14.375 L 4.765625 -14.375 L 4.765625 -8.734375 L 10.21875 -8.734375 L 10.21875 -14.375 Z M 13.71875 -14.375 "/></g></g></g><g fill="#c6a47e" fill-opacity="1"><g transform="translate(111.17619, 37.744102)"><g><path d="M 4.765625 -14.375 L 4.765625 0 L 1.265625 0 L 1.265625 -14.375 Z M 4.765625 -14.375 "/></g></g></g><g fill="#c6a47e" fill-opacity="1"><g transform="translate(117.211838, 37.744102)"><g><path d="M 12.21875 -9.75 C 12.21875 -8.914062 12.023438 -8.148438 11.640625 -7.453125 C 11.265625 -6.765625 10.679688 -6.207031 9.890625 -5.78125 C 9.097656 -5.363281 8.113281 -5.15625 6.9375 -5.15625 L 4.765625 -5.15625 L 4.765625 0 L 1.265625 0 L 1.265625 -14.375 L 6.9375 -14.375 C 8.082031 -14.375 9.050781 -14.175781 9.84375 -13.78125 C 10.632812 -13.382812 11.226562 -12.835938 11.625 -12.140625 C 12.019531 -11.441406 12.21875 -10.644531 12.21875 -9.75 Z M 6.671875 -7.9375 C 7.335938 -7.9375 7.832031 -8.09375 8.15625 -8.40625 C 8.488281 -8.726562 8.65625 -9.175781 8.65625 -9.75 C 8.65625 -10.320312 8.488281 -10.765625 8.15625 -11.078125 C 7.832031 -11.390625 7.335938 -11.546875 6.671875 -11.546875 L 4.765625 -11.546875 L 4.765625 -7.9375 Z M 6.671875 -7.9375 "/></g></g></g><g fill="#c6a47e" fill-opacity="1"><g transform="translate(129.978769, 37.744102)"><g><path d="M 10.21875 -2.53125 L 4.84375 -2.53125 L 3.984375 0 L 0.328125 0 L 5.53125 -14.375 L 9.578125 -14.375 L 14.78125 0 L 11.078125 0 Z M 9.3125 -5.234375 L 7.53125 -10.5 L 5.765625 -5.234375 Z M 9.3125 -5.234375 "/></g></g></g><g fill="#c6a47e" fill-opacity="1"><g transform="translate(145.057656, 37.744102)"><g><path d="M 8.59375 0 L 5.609375 -5.421875 L 4.765625 -5.421875 L 4.765625 0 L 1.265625 0 L 1.265625 -14.375 L 7.140625 -14.375 C 8.273438 -14.375 9.238281 -14.175781 10.03125 -13.78125 C 10.832031 -13.382812 11.429688 -12.835938 11.828125 -12.140625 C 12.222656 -11.453125 12.421875 -10.6875 12.421875 -9.84375 C 12.421875 -8.882812 12.148438 -8.03125 11.609375 -7.28125 C 11.078125 -6.53125 10.285156 -6 9.234375 -5.6875 L 12.546875 0 Z M 4.765625 -7.90625 L 6.9375 -7.90625 C 7.582031 -7.90625 8.0625 -8.0625 8.375 -8.375 C 8.695312 -8.6875 8.859375 -9.128906 8.859375 -9.703125 C 8.859375 -10.242188 8.695312 -10.671875 8.375 -10.984375 C 8.0625 -11.304688 7.582031 -11.46875 6.9375 -11.46875 L 4.765625 -11.46875 Z M 4.765625 -7.90625 "/></g></g></g><g fill="#c6a47e" fill-opacity="1"><g transform="translate(158.397461, 37.744102)"><g><path d="M 9.59375 0 L 4.765625 -6.34375 L 4.765625 0 L 1.265625 0 L 1.265625 -14.375 L 4.765625 -14.375 L 4.765625 -8.0625 L 9.5625 -14.375 L 13.671875 -14.375 L 8.109375 -7.328125 L 13.875 0 Z M 9.59375 0 "/></g></g></g><g clip-path="url(#112cf7910c)"><path fill="#c6a47e" d="M 15.613281 3.917969 L 15.613281 20.648438 L 19.757812 18.273438 L 19.757812 11.035156 L 28.054688 15.78125 L 28.054688 49.667969 L 32.203125 47.292969 L 32.203125 13.410156 Z M 25.980469 17.089844 L 9.390625 26.578125 L 9.390625 43.734375 L 13.539062 46.109375 L 13.539062 28.953125 L 21.832031 24.203125 L 21.832031 50.855469 L 23.90625 52.039062 L 25.980469 50.855469 Z M 34.277344 21.835938 L 34.277344 46.105469 L 38.421875 43.734375 L 38.421875 24.210938 Z M 34.277344 21.835938 " fill-opacity="1" fill-rule="nonzero"/></g><g clip-path="url(#bfac5a60cf)"><path fill="#c6a47e" d="M 3.167969 13.410156 L 3.167969 42.40625 L 23.90625 54.273438 L 44.644531 42.40625 L 44.644531 13.410156 L 34.273438 13.410156 L 34.273438 17.519531 L 40.496094 17.519531 L 40.496094 40.03125 L 23.90625 49.523438 L 7.316406 40.03125 L 7.316406 17.519531 L 13.539062 17.519531 L 13.539062 13.410156 Z M 3.167969 13.410156 " fill-opacity="1" fill-rule="nonzero"/></g><g clip-path="url(#607fd61172)"><path fill="#c6a47e" d="M 192.507812 3.917969 L 192.507812 20.648438 L 196.652344 18.273438 L 196.652344 11.035156 L 204.949219 15.78125 L 204.949219 49.667969 L 209.097656 47.292969 L 209.097656 13.410156 Z M 202.875 17.089844 L 186.285156 26.578125 L 186.285156 43.734375 L 190.433594 46.109375 L 190.433594 28.953125 L 198.726562 24.203125 L 198.726562 50.855469 L 200.800781 52.039062 L 202.875 50.855469 Z M 211.171875 21.835938 L 211.171875 46.105469 L 215.316406 43.734375 L 215.316406 24.210938 Z M 211.171875 21.835938 " fill-opacity="1" fill-rule="nonzero"/></g><g clip-path="url(#c58b7c9b7b)"><path fill="#c6a47e" d="M 180.0625 13.410156 L 180.0625 42.40625 L 200.800781 54.273438 L 221.539062 42.40625 L 221.539062 13.410156 L 211.167969 13.410156 L 211.167969 17.519531 L 217.390625 17.519531 L 217.390625 40.03125 L 200.800781 49.523438 L 184.210938 40.03125 L 184.210938 17.519531 L 190.433594 17.519531 L 190.433594 13.410156 Z M 180.0625 13.410156 " fill-opacity="1" fill-rule="nonzero"/></g></svg>