<svg xmlns="http://www.w3.org/2000/svg" xmlns:xlink="http://www.w3.org/1999/xlink" width="147" zoomAndPan="magnify" viewBox="0 0 110.25 44.999999" height="60" preserveAspectRatio="xMidYMid meet" version="1.0"><defs><g/><clipPath id="7af94f6912"><path d="M 8 6.15625 L 28 6.15625 L 28 38 L 8 38 Z M 8 6.15625 " clip-rule="nonzero"/></clipPath><clipPath id="37aeb2353a"><path d="M 4.46875 12 L 31.289062 12 L 31.289062 38.933594 L 4.46875 38.933594 Z M 4.46875 12 " clip-rule="nonzero"/></clipPath></defs><g fill="#212529" fill-opacity="1"><g transform="translate(34.393758, 27.065728)"><g><path d="M 6.921875 -1.71875 L 3.28125 -1.71875 L 2.703125 0 L 0.21875 0 L 3.75 -9.734375 L 6.5 -9.734375 L 10.015625 0 L 7.5 0 Z M 6.3125 -3.546875 L 5.109375 -7.125 L 3.90625 -3.546875 Z M 6.3125 -3.546875 "/></g></g></g><g fill="#212529" fill-opacity="1"><g transform="translate(44.622495, 27.065728)"><g><path d="M 3.234375 -6.453125 C 3.515625 -6.878906 3.859375 -7.210938 4.265625 -7.453125 C 4.679688 -7.703125 5.144531 -7.828125 5.65625 -7.828125 L 5.65625 -5.3125 L 5.015625 -5.3125 C 4.421875 -5.3125 3.972656 -5.179688 3.671875 -4.921875 C 3.378906 -4.671875 3.234375 -4.226562 3.234375 -3.59375 L 3.234375 0 L 0.859375 0 L 0.859375 -7.75 L 3.234375 -7.75 Z M 3.234375 -6.453125 "/></g></g></g><g fill="#212529" fill-opacity="1"><g transform="translate(50.562651, 27.065728)"><g><path d="M 0.390625 -3.875 C 0.390625 -4.675781 0.550781 -5.375 0.875 -5.96875 C 1.207031 -6.570312 1.664062 -7.035156 2.25 -7.359375 C 2.84375 -7.691406 3.519531 -7.859375 4.28125 -7.859375 C 5.25 -7.859375 6.054688 -7.601562 6.703125 -7.09375 C 7.359375 -6.582031 7.785156 -5.863281 7.984375 -4.9375 L 5.46875 -4.9375 C 5.25 -5.53125 4.835938 -5.828125 4.234375 -5.828125 C 3.796875 -5.828125 3.445312 -5.65625 3.1875 -5.3125 C 2.925781 -4.976562 2.796875 -4.5 2.796875 -3.875 C 2.796875 -3.238281 2.925781 -2.753906 3.1875 -2.421875 C 3.445312 -2.085938 3.796875 -1.921875 4.234375 -1.921875 C 4.835938 -1.921875 5.25 -2.210938 5.46875 -2.796875 L 7.984375 -2.796875 C 7.785156 -1.890625 7.359375 -1.175781 6.703125 -0.65625 C 6.046875 -0.144531 5.238281 0.109375 4.28125 0.109375 C 3.519531 0.109375 2.84375 -0.0507812 2.25 -0.375 C 1.664062 -0.695312 1.207031 -1.15625 0.875 -1.75 C 0.550781 -2.351562 0.390625 -3.0625 0.390625 -3.875 Z M 0.390625 -3.875 "/></g></g></g><g fill="#212529" fill-opacity="1"><g transform="translate(58.959373, 27.065728)"><g><path d="M 5.625 -7.828125 C 6.507812 -7.828125 7.21875 -7.53125 7.75 -6.9375 C 8.289062 -6.351562 8.5625 -5.546875 8.5625 -4.515625 L 8.5625 0 L 6.203125 0 L 6.203125 -4.203125 C 6.203125 -4.722656 6.066406 -5.125 5.796875 -5.40625 C 5.523438 -5.695312 5.164062 -5.84375 4.71875 -5.84375 C 4.257812 -5.84375 3.894531 -5.695312 3.625 -5.40625 C 3.363281 -5.125 3.234375 -4.722656 3.234375 -4.203125 L 3.234375 0 L 0.859375 0 L 0.859375 -10.265625 L 3.234375 -10.265625 L 3.234375 -6.703125 C 3.472656 -7.046875 3.800781 -7.316406 4.21875 -7.515625 C 4.632812 -7.722656 5.101562 -7.828125 5.625 -7.828125 Z M 5.625 -7.828125 "/></g></g></g><g fill="#212529" fill-opacity="1"><g transform="translate(68.313732, 27.065728)"><g><path d="M 2.046875 -8.546875 C 1.628906 -8.546875 1.289062 -8.664062 1.03125 -8.90625 C 0.769531 -9.15625 0.640625 -9.460938 0.640625 -9.828125 C 0.640625 -10.191406 0.769531 -10.492188 1.03125 -10.734375 C 1.289062 -10.984375 1.628906 -11.109375 2.046875 -11.109375 C 2.453125 -11.109375 2.785156 -10.984375 3.046875 -10.734375 C 3.316406 -10.492188 3.453125 -10.191406 3.453125 -9.828125 C 3.453125 -9.460938 3.316406 -9.15625 3.046875 -8.90625 C 2.785156 -8.664062 2.453125 -8.546875 2.046875 -8.546875 Z M 3.234375 -7.75 L 3.234375 0 L 0.859375 0 L 0.859375 -7.75 Z M 3.234375 -7.75 "/></g></g></g><g fill="#212529" fill-opacity="1"><g transform="translate(72.408003, 27.065728)"><g><path d="M 8.28125 -6.609375 C 8.28125 -6.046875 8.148438 -5.53125 7.890625 -5.0625 C 7.628906 -4.59375 7.226562 -4.210938 6.6875 -3.921875 C 6.15625 -3.640625 5.492188 -3.5 4.703125 -3.5 L 3.234375 -3.5 L 3.234375 0 L 0.859375 0 L 0.859375 -9.734375 L 4.703125 -9.734375 C 5.484375 -9.734375 6.140625 -9.597656 6.671875 -9.328125 C 7.210938 -9.066406 7.613281 -8.695312 7.875 -8.21875 C 8.144531 -7.75 8.28125 -7.210938 8.28125 -6.609375 Z M 4.515625 -5.390625 C 4.972656 -5.390625 5.3125 -5.492188 5.53125 -5.703125 C 5.757812 -5.910156 5.875 -6.210938 5.875 -6.609375 C 5.875 -6.992188 5.757812 -7.289062 5.53125 -7.5 C 5.3125 -7.71875 4.972656 -7.828125 4.515625 -7.828125 L 3.234375 -7.828125 L 3.234375 -5.390625 Z M 4.515625 -5.390625 "/></g></g></g><g fill="#212529" fill-opacity="1"><g transform="translate(81.068422, 27.065728)"><g><path d="M 0.390625 -3.890625 C 0.390625 -4.679688 0.539062 -5.375 0.84375 -5.96875 C 1.144531 -6.570312 1.550781 -7.035156 2.0625 -7.359375 C 2.582031 -7.691406 3.160156 -7.859375 3.796875 -7.859375 C 4.347656 -7.859375 4.828125 -7.742188 5.234375 -7.515625 C 5.648438 -7.296875 5.96875 -7.003906 6.1875 -6.640625 L 6.1875 -7.75 L 8.5625 -7.75 L 8.5625 0 L 6.1875 0 L 6.1875 -1.09375 C 5.957031 -0.738281 5.632812 -0.445312 5.21875 -0.21875 C 4.8125 0 4.332031 0.109375 3.78125 0.109375 C 3.15625 0.109375 2.582031 -0.0507812 2.0625 -0.375 C 1.550781 -0.707031 1.144531 -1.175781 0.84375 -1.78125 C 0.539062 -2.382812 0.390625 -3.085938 0.390625 -3.890625 Z M 6.1875 -3.875 C 6.1875 -4.46875 6.019531 -4.929688 5.6875 -5.265625 C 5.363281 -5.609375 4.96875 -5.78125 4.5 -5.78125 C 4.019531 -5.78125 3.613281 -5.609375 3.28125 -5.265625 C 2.957031 -4.929688 2.796875 -4.472656 2.796875 -3.890625 C 2.796875 -3.296875 2.957031 -2.820312 3.28125 -2.46875 C 3.613281 -2.125 4.019531 -1.953125 4.5 -1.953125 C 4.96875 -1.953125 5.363281 -2.125 5.6875 -2.46875 C 6.019531 -2.8125 6.1875 -3.28125 6.1875 -3.875 Z M 6.1875 -3.875 "/></g></g></g><g fill="#212529" fill-opacity="1"><g transform="translate(90.492183, 27.065728)"><g><path d="M 3.234375 -6.453125 C 3.515625 -6.878906 3.859375 -7.210938 4.265625 -7.453125 C 4.679688 -7.703125 5.144531 -7.828125 5.65625 -7.828125 L 5.65625 -5.3125 L 5.015625 -5.3125 C 4.421875 -5.3125 3.972656 -5.179688 3.671875 -4.921875 C 3.378906 -4.671875 3.234375 -4.226562 3.234375 -3.59375 L 3.234375 0 L 0.859375 0 L 0.859375 -7.75 L 3.234375 -7.75 Z M 3.234375 -6.453125 "/></g></g></g><g fill="#212529" fill-opacity="1"><g transform="translate(96.432339, 27.065728)"><g><path d="M 5.59375 0 L 3.234375 -3.25 L 3.234375 0 L 0.859375 0 L 0.859375 -10.265625 L 3.234375 -10.265625 L 3.234375 -4.59375 L 5.578125 -7.75 L 8.5 -7.75 L 5.28125 -3.859375 L 8.53125 0 Z M 5.59375 0 "/></g></g></g><g clip-path="url(#7af94f6912)"><path fill="#212529" d="M 12.515625 6.15625 L 12.515625 17.046875 L 15.195312 15.5 L 15.195312 10.789062 L 20.558594 13.878906 L 20.558594 35.933594 L 23.242188 34.390625 L 23.242188 12.335938 Z M 19.21875 14.730469 L 8.492188 20.90625 L 8.492188 32.074219 L 11.175781 33.617188 L 11.175781 22.453125 L 16.539062 19.359375 L 16.539062 36.707031 L 17.878906 37.480469 L 19.21875 36.707031 Z M 24.582031 17.820312 L 24.582031 33.617188 L 27.265625 32.074219 L 27.265625 19.363281 Z M 24.582031 17.820312 " fill-opacity="1" fill-rule="nonzero"/></g><g clip-path="url(#37aeb2353a)"><path fill="#212529" d="M 4.46875 12.335938 L 4.46875 31.207031 L 17.878906 38.929688 L 31.289062 31.207031 L 31.289062 12.335938 L 24.582031 12.335938 L 24.582031 15.011719 L 28.605469 15.011719 L 28.605469 29.664062 L 17.878906 35.84375 L 7.152344 29.664062 L 7.152344 15.011719 L 11.175781 15.011719 L 11.175781 12.335938 Z M 4.46875 12.335938 " fill-opacity="1" fill-rule="nonzero"/></g></svg>