<svg xmlns="http://www.w3.org/2000/svg" xmlns:xlink="http://www.w3.org/1999/xlink" width="300" zoomAndPan="magnify" viewBox="0 0 224.87999 59.249999" height="79" preserveAspectRatio="xMidYMid meet" version="1.0"><defs><g/><clipPath id="2d54facd8b"><path d="M 13 3.914062 L 43 3.914062 L 43 53 L 13 53 Z M 13 3.914062 " clip-rule="nonzero"/></clipPath><clipPath id="4a5c402ae4"><path d="M 7.195312 13 L 48.671875 13 L 48.671875 54.277344 L 7.195312 54.277344 Z M 7.195312 13 " clip-rule="nonzero"/></clipPath></defs><g fill="#c6a47e" fill-opacity="1"><g transform="translate(52.898894, 38.372241)"><g><path d="M 13.96875 -3.46875 L 6.625 -3.46875 L 5.453125 0 L 0.453125 0 L 7.5625 -19.640625 L 13.09375 -19.640625 L 20.203125 0 L 15.140625 0 Z M 12.734375 -7.15625 L 10.296875 -14.359375 L 7.890625 -7.15625 Z M 12.734375 -7.15625 "/></g></g></g><g fill="#c6a47e" fill-opacity="1"><g transform="translate(73.524497, 38.372241)"><g><path d="M 11.75 0 L 7.671875 -7.421875 L 6.515625 -7.421875 L 6.515625 0 L 1.734375 0 L 1.734375 -19.640625 L 9.765625 -19.640625 C 11.316406 -19.640625 12.632812 -19.367188 13.71875 -18.828125 C 14.8125 -18.285156 15.628906 -17.546875 16.171875 -16.609375 C 16.710938 -15.671875 16.984375 -14.617188 16.984375 -13.453125 C 16.984375 -12.148438 16.613281 -10.984375 15.875 -9.953125 C 15.144531 -8.929688 14.0625 -8.207031 12.625 -7.78125 L 17.15625 0 Z M 6.515625 -10.796875 L 9.484375 -10.796875 C 10.359375 -10.796875 11.015625 -11.007812 11.453125 -11.4375 C 11.898438 -11.875 12.125 -12.484375 12.125 -13.265625 C 12.125 -14.015625 11.898438 -14.601562 11.453125 -15.03125 C 11.015625 -15.457031 10.359375 -15.671875 9.484375 -15.671875 L 6.515625 -15.671875 Z M 6.515625 -10.796875 "/></g></g></g><g fill="#c6a47e" fill-opacity="1"><g transform="translate(91.771302, 38.372241)"><g><path d="M 0.921875 -9.84375 C 0.921875 -11.789062 1.335938 -13.523438 2.171875 -15.046875 C 3.015625 -16.566406 4.1875 -17.75 5.6875 -18.59375 C 7.195312 -19.445312 8.898438 -19.875 10.796875 -19.875 C 13.128906 -19.875 15.125 -19.253906 16.78125 -18.015625 C 18.445312 -16.785156 19.5625 -15.109375 20.125 -12.984375 L 14.859375 -12.984375 C 14.460938 -13.804688 13.90625 -14.429688 13.1875 -14.859375 C 12.476562 -15.285156 11.664062 -15.5 10.75 -15.5 C 9.269531 -15.5 8.070312 -14.984375 7.15625 -13.953125 C 6.25 -12.929688 5.796875 -11.5625 5.796875 -9.84375 C 5.796875 -8.132812 6.25 -6.765625 7.15625 -5.734375 C 8.070312 -4.710938 9.269531 -4.203125 10.75 -4.203125 C 11.664062 -4.203125 12.476562 -4.414062 13.1875 -4.84375 C 13.90625 -5.269531 14.460938 -5.894531 14.859375 -6.71875 L 20.125 -6.71875 C 19.5625 -4.59375 18.445312 -2.914062 16.78125 -1.6875 C 15.125 -0.46875 13.128906 0.140625 10.796875 0.140625 C 8.898438 0.140625 7.195312 -0.28125 5.6875 -1.125 C 4.1875 -1.976562 3.015625 -3.160156 2.171875 -4.671875 C 1.335938 -6.179688 0.921875 -7.90625 0.921875 -9.84375 Z M 0.921875 -9.84375 "/></g></g></g><g fill="#c6a47e" fill-opacity="1"><g transform="translate(113.096554, 38.372241)"><g><path d="M 18.75 -19.640625 L 18.75 0 L 13.96875 0 L 13.96875 -8.09375 L 6.515625 -8.09375 L 6.515625 0 L 1.734375 0 L 1.734375 -19.640625 L 6.515625 -19.640625 L 6.515625 -11.953125 L 13.96875 -11.953125 L 13.96875 -19.640625 Z M 18.75 -19.640625 "/></g></g></g><g fill="#c6a47e" fill-opacity="1"><g transform="translate(133.554251, 38.372241)"><g><path d="M 6.515625 -19.640625 L 6.515625 0 L 1.734375 0 L 1.734375 -19.640625 Z M 6.515625 -19.640625 "/></g></g></g><g fill="#c6a47e" fill-opacity="1"><g transform="translate(141.810092, 38.372241)"><g><path d="M 16.703125 -13.328125 C 16.703125 -12.179688 16.441406 -11.132812 15.921875 -10.1875 C 15.398438 -9.25 14.597656 -8.488281 13.515625 -7.90625 C 12.429688 -7.332031 11.085938 -7.046875 9.484375 -7.046875 L 6.515625 -7.046875 L 6.515625 0 L 1.734375 0 L 1.734375 -19.640625 L 9.484375 -19.640625 C 11.054688 -19.640625 12.378906 -19.367188 13.453125 -18.828125 C 14.535156 -18.285156 15.347656 -17.539062 15.890625 -16.59375 C 16.429688 -15.644531 16.703125 -14.554688 16.703125 -13.328125 Z M 9.125 -10.859375 C 10.039062 -10.859375 10.722656 -11.070312 11.171875 -11.5 C 11.617188 -11.925781 11.84375 -12.535156 11.84375 -13.328125 C 11.84375 -14.109375 11.617188 -14.710938 11.171875 -15.140625 C 10.722656 -15.566406 10.039062 -15.78125 9.125 -15.78125 L 6.515625 -15.78125 L 6.515625 -10.859375 Z M 9.125 -10.859375 "/></g></g></g><g fill="#c6a47e" fill-opacity="1"><g transform="translate(159.273295, 38.372241)"><g><path d="M 13.96875 -3.46875 L 6.625 -3.46875 L 5.453125 0 L 0.453125 0 L 7.5625 -19.640625 L 13.09375 -19.640625 L 20.203125 0 L 15.140625 0 Z M 12.734375 -7.15625 L 10.296875 -14.359375 L 7.890625 -7.15625 Z M 12.734375 -7.15625 "/></g></g></g><g fill="#c6a47e" fill-opacity="1"><g transform="translate(179.898898, 38.372241)"><g><path d="M 11.75 0 L 7.671875 -7.421875 L 6.515625 -7.421875 L 6.515625 0 L 1.734375 0 L 1.734375 -19.640625 L 9.765625 -19.640625 C 11.316406 -19.640625 12.632812 -19.367188 13.71875 -18.828125 C 14.8125 -18.285156 15.628906 -17.546875 16.171875 -16.609375 C 16.710938 -15.671875 16.984375 -14.617188 16.984375 -13.453125 C 16.984375 -12.148438 16.613281 -10.984375 15.875 -9.953125 C 15.144531 -8.929688 14.0625 -8.207031 12.625 -7.78125 L 17.15625 0 Z M 6.515625 -10.796875 L 9.484375 -10.796875 C 10.359375 -10.796875 11.015625 -11.007812 11.453125 -11.4375 C 11.898438 -11.875 12.125 -12.484375 12.125 -13.265625 C 12.125 -14.015625 11.898438 -14.601562 11.453125 -15.03125 C 11.015625 -15.457031 10.359375 -15.671875 9.484375 -15.671875 L 6.515625 -15.671875 Z M 6.515625 -10.796875 "/></g></g></g><g fill="#c6a47e" fill-opacity="1"><g transform="translate(198.145703, 38.372241)"><g><path d="M 13.125 0 L 6.515625 -8.671875 L 6.515625 0 L 1.734375 0 L 1.734375 -19.640625 L 6.515625 -19.640625 L 6.515625 -11.03125 L 13.0625 -19.640625 L 18.6875 -19.640625 L 11.078125 -10.015625 L 18.96875 0 Z M 13.125 0 "/></g></g></g><g clip-path="url(#2d54facd8b)"><path fill="#c6a47e" d="M 19.640625 3.917969 L 19.640625 20.648438 L 23.785156 18.273438 L 23.785156 11.035156 L 32.082031 15.78125 L 32.082031 49.667969 L 36.230469 47.292969 L 36.230469 13.410156 Z M 30.007812 17.089844 L 13.417969 26.578125 L 13.417969 43.734375 L 17.566406 46.109375 L 17.566406 28.953125 L 25.863281 24.203125 L 25.863281 50.855469 L 27.933594 52.039062 L 30.007812 50.855469 Z M 38.304688 21.835938 L 38.304688 46.105469 L 42.453125 43.734375 L 42.453125 24.210938 Z M 38.304688 21.835938 " fill-opacity="1" fill-rule="nonzero"/></g><g clip-path="url(#4a5c402ae4)"><path fill="#c6a47e" d="M 7.195312 13.410156 L 7.195312 42.40625 L 27.933594 54.273438 L 48.671875 42.40625 L 48.671875 13.410156 L 38.300781 13.410156 L 38.300781 17.519531 L 44.523438 17.519531 L 44.523438 40.03125 L 27.933594 49.523438 L 11.34375 40.03125 L 11.34375 17.519531 L 17.566406 17.519531 L 17.566406 13.410156 Z M 7.195312 13.410156 " fill-opacity="1" fill-rule="nonzero"/></g></svg>